<svg width="1200" height="400" viewBox="0 0 1200 400" xmlns="http://www.w3.org/2000/svg">
    <defs>
        <linearGradient id="grad1" x1="0%" y1="0%" x2="100%" y2="100%">
            <stop offset="0%" style="stop-color:#4f46e5;stop-opacity:1" />
            <stop offset="100%" style="stop-color:#7c3aed;stop-opacity:1" />
        </linearGradient>
        <linearGradient id="grad2" x1="0%" y1="0%" x2="100%" y2="100%">
            <stop offset="0%" style="stop-color:#ffffff;stop-opacity:0.2" />
            <stop offset="100%" style="stop-color:#ffffff;stop-opacity:0.05" />
        </linearGradient>
        <filter id="shadow" x="-20%" y="-20%" width="140%" height="140%">
            <feGaussianBlur in="SourceAlpha" stdDeviation="10" />
            <feOffset dx="0" dy="10" />
            <feComponentTransfer>
                <feFuncA type="linear" slope="0.3" />
            </feComponentTransfer>
            <feMerge>
                <feMergeNode />
                <feMergeNode in="SourceGraphic" />
            </feMerge>
        </filter>
    </defs>
    <rect width="1200" height="400" fill="url(#grad1)" />
    <path d="M0,0 L1200,0 L1200,400 Q600,300 0,400 Z" fill="rgba(255,255,255,0.05)" />
    
    <rect x="350" y="100" width="500" height="200" rx="30" fill="url(#grad2)" stroke="rgba(255,255,255,0.3)" stroke-width="2" filter="url(#shadow)" />
    
    <text x="600" y="190" font-family="Inter, sans-serif" font-size="64" font-weight="900" fill="white" text-anchor="middle" letter-spacing="-2">IQAC Portal</text>
    <text x="600" y="240" font-family="Inter, sans-serif" font-size="20" font-weight="500" fill="rgba(255,255,255,0.8)" text-anchor="middle" letter-spacing="4">INSTITUTIONAL QUALITY ASSURANCE</text>
    
    <circle cx="100" cy="100" r="150" fill="rgba(255,255,255,0.05)" />
    <circle cx="1100" cy="300" r="100" fill="rgba(255,255,255,0.05)" />
    
    <g transform="translate(560, 50)" filter="url(#shadow)">
        <path d="M40,0 L80,20 L40,40 L0,20 Z" fill="white" />
        <path d="M0,20 L40,40 L40,55 L0,35 Z" fill="#e2e8f0" />
        <path d="M80,20 L40,40 L40,55 L80,35 Z" fill="#cbd5e0" />
    </g>
</svg>
