<svg width="800" height="500" viewBox="0 0 800 500" xmlns="http://www.w3.org/2000/svg">
    <rect width="800" height="500" rx="20" fill="#f8fafc" stroke="#e2e8f0" stroke-width="2" />
    
    <rect x="20" y="20" width="200" height="460" rx="15" fill="white" stroke="#e2e8f0" />
    <circle cx="50" cy="50" r="10" fill="#6366f1" />
    <rect x="70" y="45" width="100" height="10" rx="5" fill="#e2e8f0" />
    
    <rect x="40" y="90" width="160" height="30" rx="8" fill="#f1f5f9" />
    <rect x="40" y="130" width="160" height="30" rx="8" fill="white" />
    <rect x="40" y="170" width="160" height="30" rx="8" fill="white" />
    
    <rect x="240" y="20" width="540" height="80" rx="15" fill="white" stroke="#e2e8f0" />
    <text x="260" y="55" font-family="sans-serif" font-size="18" font-weight="bold" fill="#1e293b">Dashboard Overview</text>
    <text x="260" y="80" font-family="sans-serif" font-size="12" fill="#94a3b8">Welcome back, Coordinator</text>
    
    <rect x="240" y="120" width="170" height="100" rx="15" fill="white" stroke="#e2e8f0" />
    <rect x="425" y="120" width="170" height="100" rx="15" fill="white" stroke="#e2e8f0" />
    <rect x="610" y="120" width="170" height="100" rx="15" fill="white" stroke="#e2e8f0" />
    
    <rect x="240" y="240" width="540" height="240" rx="15" fill="white" stroke="#e2e8f0" />
    <text x="260" y="275" font-family="sans-serif" font-size="14" font-weight="bold" fill="#1e293b">Attainment Trends</text>
    <path d="M260,440 L300,400 L350,420 L400,350 L450,380 L500,300 L550,340 L600,280 L650,310 L700,250" fill="none" stroke="#6366f1" stroke-width="3" />
</svg>
